<svg xmlns="http://www.w3.org/2000/svg" xmlns:xlink="http://www.w3.org/1999/xlink" class="marks" width="1510" height="380" viewBox="0 0 755 190"><rect width="755" height="190" fill="#1e1e1e"/><g fill="none" stroke-miterlimit="10" transform="translate(86,38)"><g class="mark-group role-frame root" role="graphics-object" aria-roledescription="group mark container"><g transform="translate(0,0)"><path class="background" aria-hidden="true" d="M0 0h561v1e2H0z"/><g><g class="mark-group role-scope" role="graphics-object" aria-roledescription="group mark container"><g transform="translate(0,0)"><path class="background" aria-hidden="true" d="M0 0h0v0h0z"/><g><g class="mark-line role-mark" role="graphics-symbol" aria-roledescription="line mark container"><path d="M0 43.973l28.05-1.642L56.1 42.782l28.05 1.032L112.2 43.392l28.05-16.893L168.3 36.681 196.35 45.365l28.05-5.474 28.05-1.724 28.05 2.787 28.05-1.443 28.05-1.629L364.65 38.731l28.05 1.29 28.05-1.089 28.05-1.223 28.05 3.282 28.05 1.057L532.95 42.614 561 46.74" fill-opacity="1" stroke="#7bbf73" stroke-width="2"/></g><g class="mark-symbol role-mark" role="graphics-symbol" aria-roledescription="symbol mark container"><path transform="translate(0,43.972872732310286)" d="M0 0" fill="#7bbf73" stroke="#dedede" stroke-width="1" opacity="1"/><path transform="translate(28.05,42.3307579438285)" d="M0 0" fill="#7bbf73" stroke="#dedede" stroke-width="1" opacity="1"/><path transform="translate(56.1,42.781954444568726)" d="M0 0" fill="#7bbf73" stroke="#dedede" stroke-width="1" opacity="1"/><path transform="translate(84.15,43.81378800898498)" d="M0 0" fill="#7bbf73" stroke="#dedede" stroke-width="1" opacity="1"/><path transform="translate(112.2,43.391955288075)" d="M0 0" fill="#7bbf73" stroke="#dedede" stroke-width="1" opacity="1"/><path transform="translate(140.25,26.4993061268583)" d="M0 0" fill="#7bbf73" stroke="#dedede" stroke-width="1" opacity="1"/><path transform="translate(168.3,36.68090727096362)" d="M0 0" fill="#7bbf73" stroke="#dedede" stroke-width="1" opacity="1"/><path transform="translate(196.35,45.36477963233598)" d="M0 0" fill="#7bbf73" stroke="#dedede" stroke-width="1" opacity="1"/><path transform="translate(224.4,39.890639577070594)" d="M0 0" fill="#7bbf73" stroke="#dedede" stroke-width="1" opacity="1"/><path transform="translate(252.45000000000002,38.16652785959496)" d="M0 0" fill="#7bbf73" stroke="#dedede" stroke-width="1" opacity="1"/><path transform="translate(280.5,40.953533739159056)" d="M0 0" fill="#7bbf73" stroke="#dedede" stroke-width="1" opacity="1"/><path transform="translate(308.55,39.510972758625144)" d="M0 0" fill="#7bbf73" stroke="#dedede" stroke-width="1" opacity="1"/><path transform="translate(336.6,37.88200438576028)" d="M0 0" fill="#7bbf73" stroke="#dedede" stroke-width="1" opacity="1"/><path transform="translate(364.65000000000003,38.73141562430655)" d="M0 0" fill="#7bbf73" stroke="#dedede" stroke-width="1" opacity="1"/><path transform="translate(392.7,40.02134353079805)" d="M0 0" fill="#7bbf73" stroke="#dedede" stroke-width="1" opacity="1"/><path transform="translate(420.75,38.93203165446343)" d="M0 0" fill="#7bbf73" stroke="#dedede" stroke-width="1" opacity="1"/><path transform="translate(448.8,37.70949259448838)" d="M0 0" fill="#7bbf73" stroke="#dedede" stroke-width="1" opacity="1"/><path transform="translate(476.85,40.990932735554885)" d="M0 0" fill="#7bbf73" stroke="#dedede" stroke-width="1" opacity="1"/><path transform="translate(504.90000000000003,42.04809443084072)" d="M0 0" fill="#7bbf73" stroke="#dedede" stroke-width="1" opacity="1"/><path transform="translate(532.95,42.61375856453744)" d="M0 0" fill="#7bbf73" stroke="#dedede" stroke-width="1" opacity="1"/><path transform="translate(561,46.74020998864926)" d="M0 0" fill="#7bbf73" stroke="#dedede" stroke-width="1" opacity="1"/></g></g><path class="foreground" aria-hidden="true" d="" display="none"/></g></g><g class="mark-text role-mark" role="graphics-object" aria-roledescription="text mark container"><text text-anchor="start" transform="translate(565,49.74020998864926)" font-family="sans-serif" font-size="11" font-weight="600" fill="#7bbf73" fill-opacity="1">C# - 246,441 jobs</text></g><g class="mark-group role-title"><g transform="translate(291.625,-24)"><path class="background" aria-hidden="true" d="M0 0h0v0h0z" pointer-events="none"/><g><g class="mark-text role-title-text" role="graphics-symbol" aria-roledescription="title" aria-label="Title text 'JavaScript / TypeScript jobs from 01-Jan-2023 to 30-Sep-2024'" pointer-events="none"><text text-anchor="middle" transform="translate(0,11)" font-family="Helvetica" font-size="14" font-weight="bold" fill="#d9d9d9" opacity="1">C# jobs from 01-Jan-2023 to 30-Sep-2024</text></g></g><path class="foreground" aria-hidden="true" d="" pointer-events="none" display="none"/></g></g><g class="mark-group role-axis" role="graphics-symbol" aria-roledescription="axis" aria-label="X-axis for a discrete scale with 21 values: Jan-2023, Feb-2023, Mar-2023, Apr-2023, May-2023, ending with Sep-2024"><g transform="translate(0.5,100.5)"><path class="background" aria-hidden="true" d="M0 0h0v0h0z" pointer-events="none"/><g><g class="mark-rule role-axis-tick" pointer-events="none"><line transform="translate(0,0)" x2="0" y2="5" stroke="#888" stroke-width="1" opacity="1"/><line transform="translate(28,0)" x2="0" y2="5" stroke="#888" stroke-width="1" opacity="1"/><line transform="translate(56,0)" x2="0" y2="5" stroke="#888" stroke-width="1" opacity="1"/><line transform="translate(84,0)" x2="0" y2="5" stroke="#888" stroke-width="1" opacity="1"/><line transform="translate(112,0)" x2="0" y2="5" stroke="#888" stroke-width="1" opacity="1"/><line transform="translate(140,0)" x2="0" y2="5" stroke="#888" stroke-width="1" opacity="1"/><line transform="translate(168,0)" x2="0" y2="5" stroke="#888" stroke-width="1" opacity="1"/><line transform="translate(196,0)" x2="0" y2="5" stroke="#888" stroke-width="1" opacity="1"/><line transform="translate(224,0)" x2="0" y2="5" stroke="#888" stroke-width="1" opacity="1"/><line transform="translate(252,0)" x2="0" y2="5" stroke="#888" stroke-width="1" opacity="1"/><line transform="translate(281,0)" x2="0" y2="5" stroke="#888" stroke-width="1" opacity="1"/><line transform="translate(309,0)" x2="0" y2="5" stroke="#888" stroke-width="1" opacity="1"/><line transform="translate(337,0)" x2="0" y2="5" stroke="#888" stroke-width="1" opacity="1"/><line transform="translate(365,0)" x2="0" y2="5" stroke="#888" stroke-width="1" opacity="1"/><line transform="translate(393,0)" x2="0" y2="5" stroke="#888" stroke-width="1" opacity="1"/><line transform="translate(421,0)" x2="0" y2="5" stroke="#888" stroke-width="1" opacity="1"/><line transform="translate(449,0)" x2="0" y2="5" stroke="#888" stroke-width="1" opacity="1"/><line transform="translate(477,0)" x2="0" y2="5" stroke="#888" stroke-width="1" opacity="1"/><line transform="translate(505,0)" x2="0" y2="5" stroke="#888" stroke-width="1" opacity="1"/><line transform="translate(533,0)" x2="0" y2="5" stroke="#888" stroke-width="1" opacity="1"/><line transform="translate(561,0)" x2="0" y2="5" stroke="#888" stroke-width="1" opacity="1"/></g><g class="mark-text role-axis-label" pointer-events="none"><text text-anchor="middle" transform="translate(0,22)" font-family="sans-serif" font-size="12" fill="#d9d9d9" opacity="1"><tspan>Jan</tspan><tspan x="0" dy="14">2023</tspan></text><text text-anchor="middle" transform="translate(28.05,22)" font-family="sans-serif" font-size="12" fill="#d9d9d9" opacity="1">Feb</text><text text-anchor="middle" transform="translate(56.1,22)" font-family="sans-serif" font-size="12" fill="#d9d9d9" opacity="1">Mar</text><text text-anchor="middle" transform="translate(84.15,22)" font-family="sans-serif" font-size="12" fill="#d9d9d9" opacity="1">Apr</text><text text-anchor="middle" transform="translate(112.2,22)" font-family="sans-serif" font-size="12" fill="#d9d9d9" opacity="1">May</text><text text-anchor="middle" transform="translate(140.25,22)" font-family="sans-serif" font-size="12" fill="#d9d9d9" opacity="1">Jun</text><text text-anchor="middle" transform="translate(168.3,22)" font-family="sans-serif" font-size="12" fill="#d9d9d9" opacity="1">Jul</text><text text-anchor="middle" transform="translate(196.35,22)" font-family="sans-serif" font-size="12" fill="#d9d9d9" opacity="1">Aug</text><text text-anchor="middle" transform="translate(224.4,22)" font-family="sans-serif" font-size="12" fill="#d9d9d9" opacity="1">Sep</text><text text-anchor="middle" transform="translate(252.45000000000002,22)" font-family="sans-serif" font-size="12" fill="#d9d9d9" opacity="1">Oct</text><text text-anchor="middle" transform="translate(280.5,22)" font-family="sans-serif" font-size="12" fill="#d9d9d9" opacity="1">Nov</text><text text-anchor="middle" transform="translate(308.55,22)" font-family="sans-serif" font-size="12" fill="#d9d9d9" opacity="1">Dec</text><text text-anchor="middle" transform="translate(336.6,22)" font-family="sans-serif" font-size="12" fill="#d9d9d9" opacity="1"><tspan>Jan</tspan><tspan x="0" dy="14">2024</tspan></text><text text-anchor="middle" transform="translate(364.65000000000003,22)" font-family="sans-serif" font-size="12" fill="#d9d9d9" opacity="1">Feb</text><text text-anchor="middle" transform="translate(392.7,22)" font-family="sans-serif" font-size="12" fill="#d9d9d9" opacity="1">Mar</text><text text-anchor="middle" transform="translate(420.75,22)" font-family="sans-serif" font-size="12" fill="#d9d9d9" opacity="1">Apr</text><text text-anchor="middle" transform="translate(448.8,22)" font-family="sans-serif" font-size="12" fill="#d9d9d9" opacity="1">May</text><text text-anchor="middle" transform="translate(476.85,22)" font-family="sans-serif" font-size="12" fill="#d9d9d9" opacity="1">Jun</text><text text-anchor="middle" transform="translate(504.90000000000003,22)" font-family="sans-serif" font-size="12" fill="#d9d9d9" opacity="1">Jul</text><text text-anchor="middle" transform="translate(532.95,22)" font-family="sans-serif" font-size="12" fill="#d9d9d9" opacity="1">Aug</text><text text-anchor="middle" transform="translate(561,22)" font-family="sans-serif" font-size="12" fill="#d9d9d9" opacity="1">Sep</text></g><g class="mark-rule role-axis-domain" pointer-events="none"><line transform="translate(0,0)" x2="561" y2="0" stroke="#888" stroke-width="1" opacity="1"/></g></g><path class="foreground" aria-hidden="true" d="" pointer-events="none" display="none"/></g></g><g class="mark-group role-axis" role="graphics-symbol" aria-roledescription="axis" aria-label="Y-axis titled 'Percentage' for a linear scale with values from 0% to 20%"><g transform="translate(0.5,0.5)"><path class="background" aria-hidden="true" d="M0 0h0v0h0z" pointer-events="none"/><g><g class="mark-rule role-axis-grid" pointer-events="none"><line transform="translate(0,100)" x2="561" y2="0" stroke="#ffffff44" stroke-width="1" stroke-dasharray="3,3" opacity="1"/><line transform="translate(0,75)" x2="561" y2="0" stroke="#ffffff44" stroke-width="1" stroke-dasharray="3,3" opacity="1"/><line transform="translate(0,50)" x2="561" y2="0" stroke="#ffffff44" stroke-width="1" stroke-dasharray="3,3" opacity="1"/><line transform="translate(0,25)" x2="561" y2="0" stroke="#ffffff44" stroke-width="1" stroke-dasharray="3,3" opacity="1"/><line transform="translate(0,0)" x2="561" y2="0" stroke="#ffffff44" stroke-width="1" stroke-dasharray="3,3" opacity="1"/></g><g class="mark-rule role-axis-tick" pointer-events="none"><line transform="translate(0,100)" x2="-5" y2="0" stroke="#888" stroke-width="1" opacity="1"/><line transform="translate(0,75)" x2="-5" y2="0" stroke="#888" stroke-width="1" opacity="1"/><line transform="translate(0,50)" x2="-5" y2="0" stroke="#888" stroke-width="1" opacity="1"/><line transform="translate(0,25)" x2="-5" y2="0" stroke="#888" stroke-width="1" opacity="1"/><line transform="translate(0,0)" x2="-5" y2="0" stroke="#888" stroke-width="1" opacity="1"/></g><g class="mark-text role-axis-label" pointer-events="none"><text text-anchor="end" transform="translate(-7,104)" font-family="sans-serif" font-size="12" fill="#d9d9d9" opacity="1">0%</text><text text-anchor="end" transform="translate(-7,79)" font-family="sans-serif" font-size="12" fill="#d9d9d9" opacity="1">5%</text><text text-anchor="end" transform="translate(-7,54)" font-family="sans-serif" font-size="12" fill="#d9d9d9" opacity="1">10%</text><text text-anchor="end" transform="translate(-7,29.00000000000001)" font-family="sans-serif" font-size="12" fill="#d9d9d9" opacity="1">15%</text><text text-anchor="end" transform="translate(-7,4)" font-family="sans-serif" font-size="12" fill="#d9d9d9" opacity="1">20%</text></g><g class="mark-rule role-axis-domain" pointer-events="none"><line transform="translate(0,100)" x2="0" y2="-100" stroke="#888" stroke-width="1" opacity="1"/></g><g class="mark-text role-axis-title" pointer-events="none"><text text-anchor="middle" transform="translate(-55.017578125,50) rotate(-90) translate(0,-3)" font-family="sans-serif" font-size="16" font-weight="bold" fill="#d9d9d9" opacity="1">Percentage</text></g></g><path class="foreground" aria-hidden="true" d="" pointer-events="none" display="none"/></g></g></g><path class="foreground" aria-hidden="true" d="" display="none"/></g></g></g></svg>